<svg preserveAspectRatio="none" width="100%" height="100%" overflow="visible" style="display: block;" viewBox="0 0 13 13" fill="none" xmlns="http://www.w3.org/2000/svg">
<g id="check">
<mask id="mask0_1932_72948" style="mask-type:alpha" maskUnits="userSpaceOnUse" x="0" y="0" width="13" height="13">
<rect id="Bounding box" width="13" height="13" fill="var(--fill-0, #D9D9D9)"/>
</mask>
<g mask="url(#mask0_1932_72948)">
<path id="check_2" d="M5.17321 8.20689L9.76384 3.61626C9.87217 3.50793 9.99856 3.45376 10.143 3.45376C10.2874 3.45376 10.4138 3.50793 10.5222 3.61626C10.6305 3.72459 10.6847 3.85324 10.6847 4.0022C10.6847 4.15116 10.6305 4.2798 10.5222 4.38813L5.55238 9.37147C5.44405 9.4798 5.31766 9.53397 5.17321 9.53397C5.02877 9.53397 4.90238 9.4798 4.79405 9.37147L2.46488 7.0423C2.35655 6.93397 2.30464 6.80532 2.30915 6.65636C2.31367 6.50741 2.37009 6.37876 2.47842 6.27043C2.58676 6.16209 2.7154 6.10793 2.86436 6.10793C3.01332 6.10793 3.14196 6.16209 3.2503 6.27043L5.17321 8.20689Z" fill="var(--fill-0, white)"/>
</g>
</g>
</svg>
